HIERARCHY
ROOT pelvis
{
  OFFSET 0 100 0
  CHANNELS 6 Xposition Yposition Zposition Zrotation Xrotation Yrotation
  JOINT pelvis_right_femur
  {
    OFFSET -10.78128 -3.44521 -0.5502486
    CHANNELS 3 Zrotation Xrotation Yrotation
    JOINT right_femur_tibia
    {
      OFFSET -0.8047443 -44.0398 -0.1307829
      CHANNELS 3 Zrotation Xrotation Yrotation
      JOINT right_tibia_foot
      {
        OFFSET 3.006224 -47.83518 -5
        CHANNELS 3 Zrotation Xrotation Yrotation
        End Site
        {
          OFFSET 0 -5 15
        }
      }
    }
  }
  JOINT pelvis_left_femur
  {
    OFFSET 10.78128 -3.44521 -0.5502486
    CHANNELS 3 Zrotation Xrotation Yrotation
    JOINT left_femur_tibia
    {
      OFFSET 0.8047443 -44.0398 -0.1307829
      CHANNELS 3 Zrotation Xrotation Yrotation
      JOINT left_tibia_foot
      {
        OFFSET -4.370144 -48.10324 -4.275266
        CHANNELS 3 Zrotation Xrotation Yrotation
        End Site
        {
          OFFSET 0 -5 15
        }
      }
    }
  }
  JOINT pelvis_spine1
  {
    OFFSET 0 6.468898 -3.129235
    CHANNELS 3 Zrotation Xrotation Yrotation
    JOINT spine1
    {
      OFFSET 0 23.15396 4.99043
      CHANNELS 3 Zrotation Xrotation Yrotation
      JOINT spine2
      {
        OFFSET 0 20.79997 -5.064912
        CHANNELS 3 Zrotation Xrotation Yrotation
        JOINT neck
        {
          OFFSET 0 14.38658 9.616178
          CHANNELS 3 Zrotation Xrotation Yrotation
          End Site
          {
            OFFSET 0 20 0
          }
        }
      }
      JOINT right_manubrium
      {
        OFFSET -5.722621 16.35077 3.967754
        CHANNELS 3 Zrotation Xrotation Yrotation
        JOINT right_clavicle
        {
          OFFSET -13.16364 1.694482 -4.693211
          CHANNELS 3 Zrotation Xrotation Yrotation
          JOINT right_humerus
          {
            OFFSET -28.5034 -0.3100689 -2.792744
            CHANNELS 3 Zrotation Xrotation Yrotation
            JOINT right_radius
            {
              OFFSET -25.15693 0.02248979 -1.271978
              CHANNELS 3 Zrotation Xrotation Yrotation
              End Site
              {
                OFFSET -15 0 0
              }
            }
          }
        }
      }
      JOINT left_manubrium
      {
        OFFSET 5.722621 16.35077 3.967754
        CHANNELS 3 Zrotation Xrotation Yrotation
        JOINT left_clavicle
        {
          OFFSET 13.16364 1.694482 -4.693211
          CHANNELS 3 Zrotation Xrotation Yrotation
          JOINT left_humerus
          {
            OFFSET 29.39168 -1.063119 -2.237045
            CHANNELS 3 Zrotation Xrotation Yrotation
            JOINT left_radius
            {
              OFFSET 24.59957 -0.9528479 0.9047498
              CHANNELS 3 Zrotation Xrotation Yrotation
              End Site
              {
                OFFSET 15 -0 -0
              }
            }
          }
        }
      }
    }
  }
}
MOTION
Frames: 7
Frame Time: 0.0416666666667
-184.9385 106.2956 2970.011 -1.581634 -5.867916 -15.61392 4.821908 12.32659 1.306582 -0 7.762765 -0 -5.961926 -13.23135 -0.800042 1.347664 -21.01361 -4.482148 -0 27.57271 -0 -3.386827 -5.781475 17.9206 -0.2506885 -2.099641 7.72235 -0.1969054 14.33711 -4.993998 0.8853137 21.00529 5.054549 3.181283 -20.06657 5.187738 0.4301987 -25.79611 12.71694 85.28252 22.18445 -9.989354 -0 0 22.36948 -25.03185 12.35065 13.6961 4.391737 -21.73984 -5.799804 -93.74615 13.04914 29.14125 0 0 -8.828448 8.865578 12.69581 1.908877
-185.8327 105.1385 2975.955 -1.471863 -5.820915 -16.25559 4.172039 14.69081 0.8924141 -0 8.896423 -0 -5.680767 -13.31901 -0.1560282 1.642332 -23.25556 -4.267378 -0 19.98205 -0 -2.790538 -6.285665 18.49031 -0.245402 -2.053634 8.241801 -0.4598677 14.35009 -4.49947 0.9219341 20.98119 4.941668 3.134012 -19.90254 5.107961 0.4836358 -26.56717 12.77128 84.25733 22.08091 -8.203506 -0 0 24.10653 -25.62541 12.36544 14.36701 4.098733 -21.0028 -5.597458 -94.7723 12.94336 31.06378 0 0 -6.89518 8.036156 12.50833 2.93924
-186.6693 103.8811 2981.996 -1.37609 -6.019578 -16.74825 3.463876 16.07859 0.8505673 -0 12.0529 -0 -5.128609 -12.656 0.04147817 1.468102 -24.1016 -4.401638 -0 15.42208 -0 -2.528504 -6.727979 18.87021 -0.2634225 -1.989858 8.593935 -0.6452472 14.31089 -4.151831 0.9583034 20.96911 4.87579 3.090384 -19.73849 5.076204 0.5551011 -27.02009 12.795 83.50666 22.05609 -6.953943 -0 0 25.28142 -26.06873 12.42369 14.85437 3.887047 -20.43449 -5.428193 -95.43874 12.96909 32.29293 0 0 -5.635007 7.30724 12.30099 3.855236
-187.4908 102.791 2988.157 -1.29971 -6.497224 -17.05956 2.665635 16.51393 1.126599 -0 17.30739 -0 -4.266082 -11.12104 -0.2353698 0.842074 -23.53313 -4.815422 -0 13.87192 -0 -2.651426 -7.11107 19.00489 -0.301418 -1.91371 8.748508 -0.7404436 14.22715 -3.975955 0.9931544 20.97448 4.858467 3.052632 -19.58227 5.093169 0.6279146 -27.12054 12.78349 83.09084 22.1103 -6.336939 -0 0 25.79589 -26.33108 12.51794 15.11967 3.77575 -20.08264 -5.312336 -95.68402 13.1365 32.73075 0 0 -5.137248 6.75329 12.1019 4.558899
-188.3259 102.0828 2994.464 -1.223226 -7.190515 -17.14918 1.770678 16.05157 1.601924 -0 24.31536 -0 -3.121406 -8.799702 -0.9235049 -0.1445888 -21.69413 -5.432498 -0 14.41449 -0 -3.07208 -7.534682 18.9146 -0.3516077 -1.833874 8.725599 -0.7542579 14.11562 -3.955382 1.024573 20.99607 4.880949 3.022345 -19.44373 5.148115 0.6906985 -26.92213 12.74233 82.98895 22.22465 -6.294489 -0 0 25.71882 -26.42243 12.63223 15.17833 3.758155 -19.94052 -5.253587 -95.5552 13.40993 32.47509 0 0 -5.30579 6.398073 11.93457 5.015913
-189.1836 101.8944 3000.918 -1.113517 -7.97594 -16.97558 0.8107501 14.5748 2.154857 -0 32.53053 -0 -1.771105 -5.882469 -1.94478 -1.409723 -18.63613 -6.233648 -0 15.98685 -0 -3.640354 -8.156235 18.6451 -0.4069611 -1.758528 8.554685 -0.6981629 13.9912 -4.067882 1.050041 21.02947 4.934903 3.001268 -19.33412 5.229879 0.739352 -26.49023 12.6799 83.1639 22.38071 -6.74353 -0 0 25.14888 -26.35836 12.75242 15.05549 3.821917 -19.98927 -5.248839 -95.11976 13.74405 31.65411 0 0 -6.020821 6.244001 11.81457 5.221005
-190.0531 102.2738 3007.463 -0.9379541 -8.674491 -16.5116 -0.1212955 11.81475 2.671748 -0 41.11069 -0 -0.3662479 -2.690233 -3.196511 -2.864844 -14.33986 -7.244312 -0 17.65974 -0 -4.169336 -9.143202 18.25608 -0.4633393 -1.693963 8.250103 -0.5755412 13.86266 -4.306267 1.066466 21.06976 5.017788 2.991832 -19.26593 5.332444 0.7750297 -25.85904 12.60247 83.60294 22.57056 -7.653053 -0 0 24.13257 -26.1398 12.87074 14.7592 3.961731 -20.22526 -5.296261 -94.41241 14.10548 30.33039 0 0 -7.231397 6.296944 11.75175 5.167052
